<svg xmlns="http://www.w3.org/2000/svg" aria-hidden="true" style="position:absolute;width:0;height:0;overflow:hidden">
  <defs>
    <symbol id="icon-arrow" viewBox="0 0 32 32">
      <path fill="#fff" d="M25 8v13a.997.997 0 0 1-1 1 1 1 0 0 1-1-1V10.414L8.708 24.708a1 1 0 1 1-1.414-1.414L21.588 9.001H11.002a.997.997 0 0 1-1-1 .997.997 0 0 1 1-1h13a.997.997 0 0 1 1 1z" style="fill:var(--color1, #fff)"/>
    </symbol>
    <symbol id="icon-close" viewBox="0 0 32 32">
      <path fill="#fff" d="m8.532 25.333-1.867-1.867 7.467-7.467-7.467-7.467 1.867-1.867 7.467 7.467 7.467-7.467 1.867 1.867-7.467 7.467 7.467 7.467-1.867 1.867-7.467-7.467-7.467 7.467z" style="fill:var(--color1, #fff)"/>
    </symbol>
    <symbol id="icon-gameplay1" viewBox="0 0 32 32">
      <path fill="#fff" d="M24.283 1.346c-2.375 1.909-3.968 4.133-5.247 6.48.797.488 1.599.933 2.407 1.336l5.546 2.127c.859.238 1.724.437 2.594.602a25.815 25.815 0 0 0 1.215-8.046l-6.516-2.5zm-16.676.242.946 4.06 4.309 1.024-.812-4.033-4.443-1.051zm-1.099.428L4.181 4.988l.772 3.877 2.468-2.924-.914-3.924zm1.736 4.759L5.926 9.523l3.26.482a46.5 46.5 0 0 1 1.357-.373l1.726-1.901-4.025-.957zM18.905 9.11l.548 3.682c.369.379.727.766 1.071 1.163l5.564 2.135 2.832-3.139a32.104 32.104 0 0 1-10.016-3.842zm-4.381.842c-3.083.584-6.146 1.369-9.201 2.665 2.552 2.18 4.803 4.523 6.624 7.096l9.325-2.793c-1.658-2.616-4.125-4.814-6.748-6.969zM4.107 13.116c-1.289 3.143-2.353 6.329-2.592 9.824 1.533 3.306 4.388 5.664 6.923 7.483l2.655-9.903c-1.873-2.678-4.253-5.121-6.986-7.403zm17.835 4.823-9.73 2.914-2.634 9.826c3.26-.491 6.499-1.367 9.739-3.016 1.56-3.345 1.907-6.233 2.625-9.724z" style="fill:var(--color1, #fff)"/>
    </symbol>
    <symbol id="icon-gameplay2" viewBox="0 0 32 32">
      <path fill="#fff" d="M16.01 1.352c-2.85 0-5.43.178-7.326.473-.948.147-1.722.319-2.305.533-.291.107-.535.22-.748.381-.202.154-.416.397-.436.734h-.047c0 .63.023 1.251.067 1.863H3.596c-.007-.497 0-.995.023-1.492l-1.676-.393c-.534 6.667 2.063 13.156 6.842 17.777l.978-1.85a15.312 15.312 0 0 1-.76-.672 8.95 8.95 0 0 1 1.205-1.053c.842.823 1.761 1.473 2.738 1.916 1.382 1.109.503 1.835-1.469 2.266 3.679.663 2.434 3.892-.883 5.77-.134.017-.266.033-.392.051-.753.107-1.367.232-1.838.391-.235.079-.435.163-.619.291s-.414.357-.414.713.23.582.414.711.384.212.619.291c.471.159 1.085.283 1.838.391 1.506.215 3.549.346 5.807.346s4.301-.131 5.807-.346c.753-.107 1.367-.232 1.838-.391.235-.079.435-.163.619-.291s.414-.355.414-.711-.23-.584-.414-.713-.384-.212-.619-.291c-.471-.159-1.085-.283-1.838-.391-.126-.018-.258-.034-.391-.051-3.317-1.878-4.562-5.107-.883-5.77-1.973-.43-2.852-1.158-1.467-2.267.984-.447 1.909-1.103 2.756-1.936.415.298.802.627 1.154.983-.257.261-.521.516-.795.764l1.012 1.85c4.945-4.497 7.262-11.221 6.877-17.813l-1.709.498c.028.476.04.949.035 1.422h-1.6c.044-.612.066-1.233.066-1.863h-.047c-.02-.337-.235-.581-.438-.734-.213-.161-.457-.274-.748-.381-.582-.214-1.356-.386-2.305-.533-1.896-.294-4.476-.473-7.326-.473zm0 1.168c2.801 0 5.339.178 7.146.459.904.14 1.629.308 2.082.475.065.024.111.047.164.07-.053.023-.099.046-.164.07-.453.166-1.178.336-2.082.477-1.807.281-4.345.459-7.146.459s-5.339-.178-7.146-.459c-.904-.14-1.629-.31-2.082-.477-.066-.024-.111-.047-.164-.07.053-.023.099-.046.164-.07.453-.166 1.178-.334 2.082-.475 1.807-.281 4.345-.459 7.146-.459zM3.682 7.012h1.709c.504 3.617 1.764 6.802 3.512 9.141a9.743 9.743 0 0 0-1.199 1.168c-2.416-2.904-3.69-6.54-4.021-10.309zm22.949 0h1.688c-.349 3.727-1.735 7.26-4.067 10.176-.34-.378-.713-.733-1.115-1.061 1.738-2.336 2.992-5.511 3.494-9.115z" style="fill:var(--color1, #fff)"/>
    </symbol>
    <symbol id="icon-gameplay3" viewBox="0 0 32 32">
      <path fill="#fff" d="M9.081 1.493 5.579 16.106c.351-.306.808-.363 1.227-.275l3.375-14.076-1.1-.262zm2.313.381L7.831 16.337c.063.05.119.112.169.169 2.45-.875 7.325-2 7.944 2.012.95 6.194 6.05 8.488 9.306 7.175-1.738-6.225 5.475-7.3 4.419-12.819 0 0-6.938 1.65-8.225-5.662-1.469-3.634-6.35-6.458-10.05-5.338zM6.338 16.931c-.432 1.394-.668 3.2.037 4.244.338 1.881 2.125 3.219 3.088 3.594-.762.287-1.55.175-2.213-.206-.35.713-1.169 1.094-1.86 1.313.451.55.966 1.044 1.498 1.4.269 1.137.456 2.612.794 3.556h7.169c-1.981-1.162-3.55-2.625-3.831-4.369.538-1.137.656-2.887-.031-4.431-.925-1.419-3.431-1.431-3.819-3.019-.156-.7.325-2.538-.831-2.081zm-2.587.813c-.448.094-.749.519-.64.919.541.063 1.114.138 1.658.238.024-.256.063-.513.108-.75-.386-.156-.78-.3-1.126-.406zm-1.057 2.012c-.466.106-.659.775-.231.981.863.05 1.8.163 2.56.306a3.907 3.907 0 0 1-.244-.956 19.08 19.08 0 0 0-2.086-.331zm-.198 2.094c-.559.344.013 1.012.294 1.125.973.125 1.853.169 2.569-.113.282-.156.268-.275.181-.519a26.124 26.124 0 0 0-3.043-.494zm3.622 1.856c-.784.556-2.007.531-2.806.462.103.375.493.562.683.637.586.231 1.398-.069 2.092-.525.201-.169.282-.544.031-.575zm-2.841 2.013-.824 3.431 1.094.262.813-3.394a2.778 2.778 0 0 1-1.083-.3z" style="fill:var(--color1, #fff)"/>
    </symbol>
    <symbol id="icon-gameplay4" viewBox="0 0 32 32">
      <path fill="#fff" d="m3.66 5.563-1.018 7.675h2.296V5.563H3.66zm2.403 0v7.675h2.375V5.563H6.063zm3.5 0v7.675h3.542v-1.1h5.792v1.1h3.542V5.563H9.564zm14 0v7.675h2.375V5.563h-2.375zm3.5 0v7.675h2.296l-1.018-7.675h-1.278zm-12.834 7.699v6.575h3.542v-6.575h-3.542zm1.771.725c.309 0 .606.106.825.295s.342.445.342.712c0 .18-.056.357-.163.511s-.259.282-.442.369V18.2h-1.125v-2.325c-.183-.087-.336-.214-.442-.37s-.162-.332-.162-.512c0-.267.123-.523.342-.712s.515-.295.825-.295zm-13.437.376v7.995l1.208 1.139v-9.134H2.563zm2.333 0v9.875h22.208v-9.875h-8.208v6.6h-5.792v-6.6H4.896zm23.333 0v9.134l1.208-1.139v-7.995h-1.208zM2.563 23.904v2.534h2.688l-2.688-2.534zm26.875 0-2.688 2.534h2.688v-2.534zM5.75 25.363l1.14 1.075h18.22l1.14-1.075H5.75z" style="fill:var(--color1, #fff)"/>
    </symbol>
    <symbol id="icon-menu" viewBox="0 0 32 32">
      <path fill="#fff" d="M4 24v-2.667h24V24H4zm0-6.667v-2.667h24v2.667H4zm0-6.666V8h24v2.667H4z" style="fill:var(--color1, #fff)"/>
    </symbol>
    <symbol id="icon-minus" viewBox="0 0 32 32">
      <path fill="#fff" d="M28 16a.997.997 0 0 1-1 1H5a.997.997 0 0 1-1-1 .997.997 0 0 1 1-1h22a.997.997 0 0 1 1 1z" style="fill:var(--color1, #fff)"/>
    </symbol>
    <symbol id="icon-playstore" viewBox="0 0 32 32">
      <path fill="#ea4335" d="M15.066 15.282 2.003 29.341l.002.009C2.406 30.877 3.78 32 5.412 32c.653 0 1.265-.179 1.79-.493l.042-.025 14.703-8.603-6.881-7.597z" style="fill:var(--color2, #ea4335)"/>
      <path fill="#fbbc04" d="m28.28 12.888-.012-.009-6.348-3.731-7.151 6.453 7.177 7.276 6.314-3.694a3.589 3.589 0 0 0 1.859-3.154 3.583 3.583 0 0 0-1.838-3.142z" style="fill:var(--color3, #fbbc04)"/>
      <path fill="#4285f4" d="M2.003 2.658a3.54 3.54 0 0 0-.12.921v24.843c0 .319.042.627.121.919l13.51-13.699L2.003 2.658z" style="fill:var(--color4, #4285f4)"/>
      <path fill="#34a853" d="m15.163 16 6.76-6.854L7.237.512A3.492 3.492 0 0 0 5.414.001c-1.632 0-3.008 1.126-3.409 2.654l-.001.004 13.159 13.342z" style="fill:var(--color5, #34a853)"/>
    </symbol>
  </defs>
</svg>
